<svg aria-hidden="true" style="position: absolute; width: 0; height: 0; overflow: hidden;" version="1.1" xmlns="http://www.w3.org/2000/svg" xmlns:xlink="http://www.w3.org/1999/xlink">
<defs>
<symbol id="search" viewBox="0 0 32 32">
<path fill="#fff" style="fill: var(--color1, #fff)" d="M31.514 29.146l-7.888-7.92c1.944-2.205 3.132-5.117 3.136-8.306v-0.001c0.003-7.123-5.997-12.918-13.376-12.918s-13.386 5.795-13.386 12.918c0 7.126 6.003 12.922 13.382 12.922 0.017 0 0.036 0 0.056 0 2.841 0 5.478-0.873 7.658-2.366l-0.046 0.030 7.949 7.981c0.318 0.318 0.758 0.515 1.244 0.515 0.005 0 0.009-0 0.014-0h-0.001c0.002 0 0.005 0 0.008 0 0.464 0 0.887-0.179 1.203-0.471l-0.001 0.001c0.33-0.302 0.536-0.734 0.536-1.215 0-0.457-0.187-0.871-0.488-1.169l-0-0zM13.382 3.37c5.453 0 9.888 4.285 9.888 9.549 0 5.267-4.435 9.552-9.888 9.552s-9.894-4.285-9.894-9.552c0-5.264 4.438-9.549 9.888-9.549z"></path>
</symbol>
<symbol id="Vector" viewBox="0 0 32 32">
<path d="M30.352 22.374h-22.363c-0.883 0-1.598-0.716-1.598-1.598s0.716-1.598 1.598-1.598v0h16.678c0 0 0 0 0 0 2.233 0 4.11-1.527 4.642-3.594l0.007-0.033 2.635-10.373c0.031-0.118 0.049-0.253 0.049-0.393 0-0.372-0.127-0.713-0.34-0.985l0.003 0.003c-0.295-0.372-0.748-0.609-1.255-0.609-0.019 0-0.038 0-0.056 0.001l0.003-0h-22.75c-0.677-1.873-2.437-3.189-4.505-3.195h-1.503c-0.883 0-1.598 0.716-1.598 1.598s0.716 1.598 1.598 1.598v0h1.504c0.013-0 0.029-0.001 0.045-0.001 0.746 0 1.373 0.512 1.548 1.204l0.002 0.011 0.096 0.768 2.765 10.802c-2.556 0.119-4.583 2.22-4.583 4.794 0 2.651 2.149 4.799 4.799 4.799 0.076 0 0.152-0.002 0.227-0.005l-0.011 0h0.288c-0.181 0.485-0.286 1.045-0.286 1.63 0 2.648 2.147 4.795 4.795 4.795 0.806 0 1.565-0.199 2.232-0.55l-0.026 0.013c1.545-0.818 2.58-2.415 2.58-4.254 0-0.586-0.105-1.148-0.298-1.667l0.011 0.033h3.771c-0.181 0.486-0.286 1.047-0.286 1.632 0 2.647 2.144 4.794 4.79 4.798h0c0 0 0 0 0 0 2.647 0 4.794-2.146 4.794-4.794 0-0.587-0.106-1.15-0.299-1.67l0.011 0.033h0.288c0.861-0.028 1.548-0.733 1.548-1.598s-0.687-1.57-1.545-1.598l-0.003-0zM28.309 6.392l-2.093 8.376c-0.177 0.704-0.804 1.217-1.551 1.217-0.017 0-0.033-0-0.050-0.001l0.002 0h-13.786l-2.397-9.594h19.872zM12.781 28.768c-0.882 0-1.598-0.715-1.598-1.598s0.715-1.598 1.598-1.598v0c0.882 0 1.598 0.715 1.598 1.598s-0.715 1.598-1.598 1.598v0zM25.56 28.768c-0.882 0-1.598-0.715-1.598-1.598s0.715-1.598 1.598-1.598v0c0.882 0 1.598 0.715 1.598 1.598s-0.715 1.598-1.598 1.598v0z"></path>
</symbol>
<symbol id="Vector2" viewBox="0 0 47 32">
<path d="M44.392 0c0.021-0.001 0.046-0.001 0.071-0.001 1.473 0 2.667 1.194 2.667 2.667s-1.194 2.667-2.667 2.667c-0.025 0-0.050-0-0.075-0.001l0.004 0h-41.724c-0.021 0.001-0.046 0.001-0.071 0.001-1.473 0-2.667-1.194-2.667-2.667s1.194-2.667 2.667-2.667c0.025 0 0.050 0 0.075 0.001l-0.004-0h41.724zM47.059 29.333c0 1.474-1.193 2.667-2.667 2.667h-10.353c-1.442-0.040-2.596-1.218-2.596-2.666s1.154-2.627 2.593-2.666l0.004-0h10.353c1.474 0 2.667 1.193 2.667 2.665zM15.686 16c0 1.472 1.195 2.667 2.667 2.667h26.039c1.473 0 2.667-1.194 2.667-2.667s-1.194-2.667-2.667-2.667h-26.039c-1.472 0-2.667 1.195-2.667 2.667z"></path>
</symbol>
</defs>
</svg>
